<svg width="4327" height="2076" xmlns="http://www.w3.org/2000/svg" xmlns:xlink="http://www.w3.org/1999/xlink" xml:space="preserve" overflow="hidden"><g transform="translate(-36 -229)"><g><path d="M777 859.506C777 700.168 906.168 571 1065.51 571L4073.49 571C4232.83 571 4362 700.168 4362 859.506L4362 2013.49C4362 2172.83 4232.83 2302 4073.49 2302L1065.51 2302C906.168 2302 777 2172.83 777 2013.49Z" fill="#2B5033" fill-rule="evenodd" fill-opacity="1"/><path d="M841 1023.5C841 908.903 933.903 816 1048.5 816L2209.5 816C2324.1 816 2417 908.903 2417 1023.5L2417 1853.5C2417 1968.1 2324.1 2061 2209.5 2061L1048.5 2061C933.903 2061 841 1968.1 841 1853.5Z" fill="#242324" fill-rule="evenodd" fill-opacity="1"/><text fill="#FFC932" fill-opacity="1" font-family="Helvetica Neue,Helvetica Neue_MSFontService,sans-serif" font-style="normal" font-variant="normal" font-weight="700" font-stretch="normal" font-size="83" text-anchor="start" direction="ltr" writing-mode="lr-tb" unicode-bidi="normal" text-decoration="none" transform="matrix(1 0 0 1 1622.35 1555)">Model </text><text fill="#FFC932" fill-opacity="1" font-family="Helvetica Neue,Helvetica Neue_MSFontService,sans-serif" font-style="normal" font-variant="normal" font-weight="700" font-stretch="normal" font-size="83" text-anchor="start" direction="ltr" writing-mode="lr-tb" unicode-bidi="normal" text-decoration="none" transform="matrix(1 0 0 1 1550.73 1654)">Evaluatio</text><text fill="#FFC932" fill-opacity="1" font-family="Helvetica Neue,Helvetica Neue_MSFontService,sans-serif" font-style="normal" font-variant="normal" font-weight="700" font-stretch="normal" font-size="83" text-anchor="start" direction="ltr" writing-mode="lr-tb" unicode-bidi="normal" text-decoration="none" transform="matrix(1 0 0 1 1912.81 1654)">n</text><text fill="#FFC932" fill-opacity="1" font-family="Helvetica Neue,Helvetica Neue_MSFontService,sans-serif" font-style="normal" font-variant="normal" font-weight="700" font-stretch="normal" font-size="83" text-anchor="start" direction="ltr" writing-mode="lr-tb" unicode-bidi="normal" text-decoration="none" transform="matrix(1 0 0 1 2081.9 964)">Model </text><text fill="#FFC932" fill-opacity="1" font-family="Helvetica Neue,Helvetica Neue_MSFontService,sans-serif" font-style="normal" font-variant="normal" font-weight="700" font-stretch="normal" font-size="83" text-anchor="start" direction="ltr" writing-mode="lr-tb" unicode-bidi="normal" text-decoration="none" transform="matrix(1 0 0 1 2066.16 1063)">training</text><text fill="#FFC932" fill-opacity="1" font-family="Helvetica Neue,Helvetica Neue_MSFontService,sans-serif" font-style="normal" font-variant="normal" font-weight="700" font-stretch="normal" font-size="83" text-anchor="start" direction="ltr" writing-mode="lr-tb" unicode-bidi="normal" text-decoration="none" transform="matrix(1 0 0 1 1052.58 947)">Model </text><text fill="#FFC932" fill-opacity="1" font-family="Helvetica Neue,Helvetica Neue_MSFontService,sans-serif" font-style="normal" font-variant="normal" font-weight="700" font-stretch="normal" font-size="83" text-anchor="start" direction="ltr" writing-mode="lr-tb" unicode-bidi="normal" text-decoration="none" transform="matrix(1 0 0 1 948.38 1046)">architecture</text><g><g><g><path d="M90.2084 63.1459 63.1459 63.1459 63.1459 369.854 369.854 369.854 369.854 342.792 90.2084 342.792 90.2084 63.1459Z" stroke="#4E9A06" stroke-width="10.3095" stroke-linecap="butt" stroke-linejoin="miter" stroke-miterlimit="4" stroke-opacity="1" fill="#FFFFFF" fill-rule="nonzero" fill-opacity="1" transform="matrix(1 0 0 1.00231 1538 1645)"/><path d="M366.494 282.699C350.766 283.259 308.801 284.756 300.191 199.491 293.177 129.742 275.181 99.9824 240.09 99.9824 204.999 99.9824 187.024 129.742 179.966 199.491 171.396 284.756 129.449 283.209 113.685 282.699 112.373 282.65 111.245 282.614 110.325 282.614L110.325 309.676C110.979 309.676 111.786 309.708 112.724 309.744 114.141 309.794 115.539 309.816 116.928 309.816 169.429 309.816 199.699 273.638 206.911 202.211 214.497 127.045 233.071 127.045 240.09 127.045 247.108 127.045 265.682 127.045 273.268 202.211 280.674 275.528 312.31 311.539 367.459 309.744 368.393 309.708 369.196 309.676 369.854 309.676L369.854 282.614C368.952 282.614 367.807 282.65 366.494 282.699Z" stroke="#4E9A06" stroke-width="10.3095" stroke-linecap="butt" stroke-linejoin="miter" stroke-miterlimit="4" stroke-opacity="1" fill="#FFFFFF" fill-rule="nonzero" fill-opacity="1" transform="matrix(1 0 0 1.00231 1538 1645)"/><path d="M235.579 194.701 244.6 194.701 244.6 217.253 235.579 217.253Z" stroke="#4E9A06" stroke-width="10.3095" stroke-linecap="butt" stroke-linejoin="miter" stroke-miterlimit="4" stroke-opacity="1" fill="#FFFFFF" fill-rule="nonzero" fill-opacity="1" transform="matrix(1 0 0 1.00231 1538 1645)"/><path d="M235.579 235.295 244.6 235.295 244.6 257.847 235.579 257.847Z" stroke="#4E9A06" stroke-width="10.3095" stroke-linecap="butt" stroke-linejoin="miter" stroke-miterlimit="4" stroke-opacity="1" fill="#FFFFFF" fill-rule="nonzero" fill-opacity="1" transform="matrix(1 0 0 1.00231 1538 1645)"/><path d="M235.579 155.614 244.6 155.614 244.6 178.166 235.579 178.166Z" stroke="#4E9A06" stroke-width="10.3095" stroke-linecap="butt" stroke-linejoin="miter" stroke-miterlimit="4" stroke-opacity="1" fill="#FFFFFF" fill-rule="nonzero" fill-opacity="1" transform="matrix(1 0 0 1.00231 1538 1645)"/><path d="M235.579 275.889 244.6 275.889 244.6 297.688 235.579 297.688Z" stroke="#4E9A06" stroke-width="10.3095" stroke-linecap="butt" stroke-linejoin="miter" stroke-miterlimit="4" stroke-opacity="1" fill="#FFFFFF" fill-rule="nonzero" fill-opacity="1" transform="matrix(1 0 0 1.00231 1538 1645)"/></g></g></g><path d="M868 1196.5C868 1169.71 888.819 1148 914.5 1148 940.181 1148 961 1169.71 961 1196.5 961 1223.29 940.181 1245 914.5 1245 888.819 1245 868 1223.29 868 1196.5Z" stroke="#4E9A06" stroke-width="10.3125" stroke-linecap="butt" stroke-linejoin="miter" stroke-miterlimit="8" stroke-opacity="1" fill="#F5F5F5" fill-rule="evenodd" fill-opacity="1"/><path d="M868 1332.5C868 1305.71 888.819 1284 914.5 1284 940.181 1284 961 1305.71 961 1332.5 961 1359.29 940.181 1381 914.5 1381 888.819 1381 868 1359.29 868 1332.5Z" stroke="#4E9A06" stroke-width="10.3125" stroke-linecap="butt" stroke-linejoin="miter" stroke-miterlimit="8" stroke-opacity="1" fill="#F5F5F5" fill-rule="evenodd" fill-opacity="1"/><rect x="1068" y="1156" width="162" height="71.9999" stroke="#4E9A06" stroke-width="10.3125" stroke-linecap="butt" stroke-linejoin="miter" stroke-miterlimit="8" stroke-opacity="1" fill="#F5F5F5" fill-opacity="1"/><rect x="1068" y="1309" width="162" height="71.9999" stroke="#4E9A06" stroke-width="10.3125" stroke-linecap="butt" stroke-linejoin="miter" stroke-miterlimit="8" stroke-opacity="1" fill="#F5F5F5" fill-opacity="1"/><rect x="1347" y="1156" width="162" height="71.9999" stroke="#4E9A06" stroke-width="10.3125" stroke-linecap="butt" stroke-linejoin="miter" stroke-miterlimit="8" stroke-opacity="1" fill="#F5F5F5" fill-opacity="1"/><rect x="1351" y="1303" width="163" height="71.9999" stroke="#4E9A06" stroke-width="10.3125" stroke-linecap="butt" stroke-linejoin="miter" stroke-miterlimit="8" stroke-opacity="1" fill="#F5F5F5" fill-opacity="1"/><path d="M0 0 107.074 4.5873" stroke="#4E9A06" stroke-width="10.3125" stroke-linecap="butt" stroke-linejoin="miter" stroke-miterlimit="8" stroke-opacity="1" fill="#F5F5F5" fill-rule="evenodd" fill-opacity="1" transform="matrix(1 0 0 -1 961 1196.59)"/><path d="M0 0 107.074 140.575" stroke="#4E9A06" stroke-width="10.3125" stroke-linecap="butt" stroke-linejoin="miter" stroke-miterlimit="8" stroke-opacity="1" fill="#F5F5F5" fill-rule="evenodd" fill-opacity="1" transform="matrix(1 0 0 -1 961 1332.58)"/><path d="M961 1196 1068.07 1344.61" stroke="#4E9A06" stroke-width="10.3125" stroke-linecap="butt" stroke-linejoin="miter" stroke-miterlimit="8" stroke-opacity="1" fill="#F5F5F5" fill-rule="evenodd" fill-opacity="1"/><path d="M961 1332 1068.07 1344.62" stroke="#4E9A06" stroke-width="10.3125" stroke-linecap="butt" stroke-linejoin="miter" stroke-miterlimit="8" stroke-opacity="1" fill="#F5F5F5" fill-rule="evenodd" fill-opacity="1"/><path d="M0 0 116.528 153.2" stroke="#4E9A06" stroke-width="10.3125" stroke-linecap="butt" stroke-linejoin="miter" stroke-miterlimit="8" stroke-opacity="1" fill="#F5F5F5" fill-rule="evenodd" fill-opacity="1" transform="matrix(1 0 0 -1 1230 1345.2)"/><path d="M1230 1192 1351.27 1338.89" stroke="#4E9A06" stroke-width="10.3125" stroke-linecap="butt" stroke-linejoin="miter" stroke-miterlimit="8" stroke-opacity="1" fill="#F5F5F5" fill-rule="evenodd" fill-opacity="1"/><path d="M0 0 121.267 6.31201" stroke="#4E9A06" stroke-width="10.3125" stroke-linecap="butt" stroke-linejoin="miter" stroke-miterlimit="8" stroke-opacity="1" fill="#F5F5F5" fill-rule="evenodd" fill-opacity="1" transform="matrix(1 0 0 -1 1230 1345.31)"/><path d="M1230 1192 1346.53 1192" stroke="#4E9A06" stroke-width="10.3125" stroke-linecap="butt" stroke-linejoin="miter" stroke-miterlimit="8" stroke-opacity="1" fill="#F5F5F5" fill-rule="evenodd" fill-opacity="1"/><g><g><g><path d="M2222.88 1226.44C2222.88 1230.23 2219.8 1233.31 2216 1233.31 2212.2 1233.31 2209.13 1230.23 2209.13 1226.44 2209.13 1222.64 2212.2 1219.56 2216 1219.56 2219.8 1219.56 2222.88 1222.64 2222.88 1226.44Z" stroke="#4E9A06" stroke-width="10.3125" stroke-linecap="butt" stroke-linejoin="miter" stroke-miterlimit="4" stroke-opacity="1" fill="#FFFFFF" fill-rule="nonzero" fill-opacity="1"/><path d="M2222.88 1363.94C2222.88 1367.73 2219.8 1370.81 2216 1370.81 2212.2 1370.81 2209.13 1367.73 2209.13 1363.94 2209.13 1360.14 2212.2 1357.06 2216 1357.06 2219.8 1357.06 2222.88 1360.14 2222.88 1363.94Z" stroke="#4E9A06" stroke-width="10.3125" stroke-linecap="butt" stroke-linejoin="miter" stroke-miterlimit="4" stroke-opacity="1" fill="#FFFFFF" fill-rule="nonzero" fill-opacity="1"/><path d="M2291.63 1291.75C2291.63 1295.55 2288.55 1298.63 2284.75 1298.63 2280.95 1298.63 2277.88 1295.55 2277.88 1291.75 2277.88 1287.95 2280.95 1284.88 2284.75 1284.88 2288.55 1284.88 2291.63 1287.95 2291.63 1291.75Z" stroke="#4E9A06" stroke-width="10.3125" stroke-linecap="butt" stroke-linejoin="miter" stroke-miterlimit="4" stroke-opacity="1" fill="#FFFFFF" fill-rule="nonzero" fill-opacity="1"/><path d="M2154.13 1291.75C2154.13 1295.55 2151.05 1298.63 2147.25 1298.63 2143.45 1298.63 2140.38 1295.55 2140.38 1291.75 2140.38 1287.95 2143.45 1284.88 2147.25 1284.88 2151.05 1284.88 2154.13 1287.95 2154.13 1291.75Z" stroke="#4E9A06" stroke-width="10.3125" stroke-linecap="butt" stroke-linejoin="miter" stroke-miterlimit="4" stroke-opacity="1" fill="#FFFFFF" fill-rule="nonzero" fill-opacity="1"/><path d="M2222.88 1243.63 2209.13 1243.63 2209.13 1291.75C2209.13 1293.47 2209.81 1295.19 2211.19 1296.56L2245.22 1330.59 2254.84 1320.97 2222.88 1289 2222.88 1243.63Z" stroke="#4E9A06" stroke-width="10.3125" stroke-linecap="butt" stroke-linejoin="miter" stroke-miterlimit="4" stroke-opacity="1" fill="#FFFFFF" fill-rule="nonzero" fill-opacity="1"/><path d="M2216 1391.44C2162.72 1391.44 2119.75 1348.47 2119.75 1295.19 2119.75 1241.91 2162.72 1198.94 2216 1198.94 2269.28 1198.94 2312.25 1241.91 2312.25 1295.19 2312.25 1348.47 2269.28 1391.44 2216 1391.44L2216 1391.44ZM2297.47 1211.31 2307.78 1201C2311.56 1196.88 2311.56 1190.69 2307.44 1186.56 2303.66 1182.78 2297.13 1182.44 2293 1186.22L2281.31 1198.25C2264.81 1187.25 2245.91 1180.38 2226.31 1179L2226.31 1164.56 2257.25 1164.56 2257.25 1143.94 2174.75 1143.94 2174.75 1164.56 2205.69 1164.56 2205.69 1178.66C2151.03 1183.47 2107.03 1225.75 2100.16 1280.41 2093.28 1335.06 2125.25 1386.97 2177.16 1405.19 2229.06 1423.41 2286.47 1403.47 2315.69 1356.72 2344.91 1309.97 2336.66 1249.47 2297.47 1211.31Z" stroke="#4E9A06" stroke-width="10.3125" stroke-linecap="butt" stroke-linejoin="miter" stroke-miterlimit="4" stroke-opacity="1" fill="#FFFFFF" fill-rule="nonzero" fill-opacity="1"/></g></g></g><path d="M1621.5 1119.5 1786.31 1119.5C1857.11 1119.5 1914.5 1176.89 1914.5 1247.69L1914.5 1284.69C1914.5 1355.48 1857.11 1412.88 1786.31 1412.88L1694.75 1412.88 1694.75 1449.5 1621.5 1376.25 1694.75 1303 1694.75 1339.63 1786.31 1339.63C1816.65 1339.63 1841.25 1315.03 1841.25 1284.69L1841.25 1247.69C1841.25 1217.35 1816.65 1192.75 1786.31 1192.75L1621.5 1192.75Z" stroke="#FFC932" stroke-width="4.58333" stroke-linecap="butt" stroke-linejoin="miter" stroke-miterlimit="8" stroke-opacity="1" fill="#FFC932" fill-rule="evenodd" fill-opacity="1"/><path d="M2460.5 1414.5 2639.5 1414.5 2639.5 1364.5 2739.5 1464.5 2639.5 1564.5 2639.5 1514.5 2460.5 1514.5Z" stroke="#FFC932" stroke-width="4.58333" stroke-linecap="butt" stroke-linejoin="miter" stroke-miterlimit="8" stroke-opacity="1" fill="#FFC932" fill-rule="evenodd" fill-opacity="1"/><path d="M2781 1333.17C2781 1293.31 2813.31 1261 2853.17 1261L3264.83 1261C3304.69 1261 3337 1293.31 3337 1333.17L3337 1621.83C3337 1661.69 3304.69 1694 3264.83 1694L2853.17 1694C2813.31 1694 2781 1661.69 2781 1621.83Z" fill="#242324" fill-rule="evenodd" fill-opacity="1"/><text fill="#FFC932" fill-opacity="1" font-family="Helvetica Neue,Helvetica Neue_MSFontService,sans-serif" font-style="normal" font-variant="normal" font-weight="700" font-stretch="normal" font-size="83" text-anchor="start" direction="ltr" writing-mode="lr-tb" unicode-bidi="normal" text-decoration="none" transform="matrix(1 0 0 1 2936.77 1460)">Model</text><text fill="#FFC932" fill-opacity="1" font-family="Helvetica Neue,Helvetica Neue_MSFontService,sans-serif" font-style="normal" font-variant="normal" font-weight="700" font-stretch="normal" font-size="83" text-anchor="start" direction="ltr" writing-mode="lr-tb" unicode-bidi="normal" text-decoration="none" transform="matrix(1 0 0 1 2850.83 1559)">Versionin</text><text fill="#FFC932" fill-opacity="1" font-family="Helvetica Neue,Helvetica Neue_MSFontService,sans-serif" font-style="normal" font-variant="normal" font-weight="700" font-stretch="normal" font-size="83" text-anchor="start" direction="ltr" writing-mode="lr-tb" unicode-bidi="normal" text-decoration="none" transform="matrix(1 0 0 1 3216.92 1559)">g</text><path d="M3704 1343.17C3704 1303.31 3736.31 1271 3776.17 1271L4226.83 1271C4266.69 1271 4299 1303.31 4299 1343.17L4299 1631.83C4299 1671.69 4266.69 1704 4226.83 1704L3776.17 1704C3736.31 1704 3704 1671.69 3704 1631.83Z" fill="#242324" fill-rule="evenodd" fill-opacity="1"/><text fill="#FFC932" fill-opacity="1" font-family="Helvetica Neue,Helvetica Neue_MSFontService,sans-serif" font-style="normal" font-variant="normal" font-weight="700" font-stretch="normal" font-size="83" text-anchor="start" direction="ltr" writing-mode="lr-tb" unicode-bidi="normal" text-decoration="none" transform="matrix(1 0 0 1 3879.38 1469)">Model </text><text fill="#FFC932" fill-opacity="1" font-family="Helvetica Neue,Helvetica Neue_MSFontService,sans-serif" font-style="normal" font-variant="normal" font-weight="700" font-stretch="normal" font-size="83" text-anchor="start" direction="ltr" writing-mode="lr-tb" unicode-bidi="normal" text-decoration="none" transform="matrix(1 0 0 1 3764.79 1568)">Deployment</text><path d="M3381.5 1432.5 3560.5 1432.5 3560.5 1382.5 3660.5 1482.5 3560.5 1582.5 3560.5 1532.5 3381.5 1532.5Z" stroke="#FFC932" stroke-width="4.58333" stroke-linecap="butt" stroke-linejoin="miter" stroke-miterlimit="8" stroke-opacity="1" fill="#FFC932" fill-rule="evenodd" fill-opacity="1"/><path d="M38.0002 1306.67C38.0002 1276.48 62.4758 1252 92.6679 1252L358.332 1252C388.524 1252 413 1276.48 413 1306.67L413 1525.33C413 1555.52 388.524 1580 358.332 1580L92.6679 1580C62.4758 1580 38.0002 1555.52 38.0002 1525.33Z" fill="#242324" fill-rule="evenodd" fill-opacity="1"/><text fill="#FFC932" fill-opacity="1" font-family="Helvetica Neue,Helvetica Neue_MSFontService,sans-serif" font-style="normal" font-variant="normal" font-weight="700" font-stretch="normal" font-size="83" text-anchor="start" direction="ltr" writing-mode="lr-tb" unicode-bidi="normal" text-decoration="none" transform="matrix(1 0 0 1 132.386 1447)">Data</text><path d="M457.5 1353.25 637 1353.25 637 1303.5 736.5 1403 637 1502.5 637 1452.75 457.5 1452.75Z" stroke="#FFC932" stroke-width="4.58333" stroke-linecap="butt" stroke-linejoin="miter" stroke-miterlimit="8" stroke-opacity="1" fill="#FFC932" fill-rule="evenodd" fill-opacity="1"/><text fill="#3B6F47" fill-opacity="1" font-family="Gill Sans Ultra Bold,Gill Sans Ultra Bold_MSFontService,sans-serif" font-style="normal" font-variant="normal" font-weight="700" font-stretch="normal" font-size="202" text-anchor="start" direction="ltr" writing-mode="lr-tb" unicode-bidi="normal" text-decoration="none" transform="matrix(1 0 0 1 2029.84 487)">Magic</text><text fill="#242324" fill-opacity="1" font-family="Gill Sans Ultra Bold,Gill Sans Ultra Bold_MSFontService,sans-serif" font-style="normal" font-variant="normal" font-weight="700" font-stretch="normal" font-size="202" text-anchor="start" direction="ltr" writing-mode="lr-tb" unicode-bidi="normal" text-decoration="none" transform="matrix(1 0 0 1 2774.06 487)">ML</text></g></g></svg>